# xmcd CD database file
#
# Track frame offsets:
#	150
#	27973
#	53517
#	75415
#	91492
#	121266
#	144051
#	166463
#	186610
#	204087
#	228204
#	257919
#	294086
#
# Disc length: 4335 seconds
#
# Revision: 0
# Processed by: cddbd v1.4PL0 Copyright (c) Steve Scherf et al.
# Submitted via: CDex 1.51
#
DISCID=a010ed0d
DTITLE=Joey Defrancesco - Re Boppin
DYEAR=1999
DGENRE=Jazz
TTITLE0=Sister Sadie
TTITLE1=ReBoppin'
TTITLE2=Romancin' the Moon
TTITLE3=Big Bad Jim
TTITLE4=Someday My Prince Will Come
TTITLE5=New Blues
TTITLE6=ESP
TTITLE7=Evidence
TTITLE8=Family Jam
TTITLE9=Namia
TTITLE10=Bye Bye Blackbird
TTITLE11=Just Friends
TTITLE12=That's All
EXTD=YEAR: 1999
EXTT0=
EXTT1=
EXTT2=
EXTT3=
EXTT4=
EXTT5=
EXTT6=
EXTT7=
EXTT8=
EXTT9=
EXTT10=
EXTT11=
EXTT12=
PLAYORDER=
